<svg width="1430" height="1783" viewBox="0 0 1430 1783" fill="none" xmlns="http://www.w3.org/2000/svg">
<mask id="mask0_81_223" style="mask-type:luminance" maskUnits="userSpaceOnUse" x="0" y="0" width="1430" height="1783">
<path d="M0 -0.000431339H1429.01V1782.93H0V-0.000431339Z" fill="white"/>
</mask>
<g mask="url(#mask0_81_223)">
<path d="M76.4211 1780.66L919.323 1782.93C961.644 1783.04 996.043 1748.85 996.158 1706.55L999.868 328.015C999.982 285.718 965.767 251.337 923.446 251.224L80.5447 248.957C38.2246 248.843 3.8247 283.039 3.71096 325.336L-0.000699692 1703.87C-0.113247 1746.17 34.101 1780.55 76.4211 1780.66Z" fill="#ACACAF"/>
<path d="M76.4211 1780.66L919.323 1782.93C961.644 1783.04 996.043 1748.85 996.158 1706.55L998.556 815.437L0.694934 1445.51L-0.000699692 1703.87C-0.113247 1746.17 34.101 1780.55 76.4211 1780.66Z" fill="#808286"/>
<path d="M114.994 1684.34L881.269 1686.4C902.429 1686.46 919.629 1669.36 919.686 1648.21L923.088 384.559C923.145 363.41 906.038 346.219 884.877 346.163L118.602 344.101C97.4417 344.045 80.2424 361.143 80.1849 382.291L76.7833 1645.95C76.7271 1667.1 93.8342 1684.29 114.994 1684.34Z" fill="white"/>
<path d="M502.049 230.254C480.888 230.198 463.782 213.008 463.838 191.858C463.896 170.709 481.095 153.612 502.255 153.668C523.416 153.726 540.523 170.916 540.466 192.064C540.41 213.214 523.21 230.311 502.049 230.254ZM693.721 192.477L651.799 192.363C633.648 192.315 619.216 179.23 614.449 161.723C601.199 113.066 556.742 77.2301 503.841 77.0877C450.939 76.9453 406.291 112.542 392.779 161.127C387.917 178.608 373.416 191.615 355.265 191.566L310.584 191.447C289.423 191.389 272.223 208.487 272.167 229.635L271.961 306.221L731.725 307.458L731.931 230.873C731.989 209.723 714.883 192.534 693.721 192.477Z" fill="#808286"/>
<path d="M424.132 709.395C423.96 772.84 372.361 824.135 308.881 823.963C245.401 823.794 194.078 772.222 194.249 708.776C194.421 645.331 246.02 594.037 309.5 594.208C372.98 594.379 424.303 645.949 424.132 709.395Z" fill="#FD92B4"/>
<path d="M251.719 708.931L289.93 747.327L366.763 670.949" stroke="white" stroke-width="3.04339" stroke-miterlimit="10"/>
<path d="M462.548 671.206L692.43 671.824" stroke="#808286" stroke-width="3.04339" stroke-miterlimit="10"/>
<path d="M730.744 671.927L807.372 672.133" stroke="#808286" stroke-width="3.04339" stroke-miterlimit="10"/>
<path d="M807.165 748.719L577.283 748.1" stroke="#808286" stroke-width="3.04339" stroke-miterlimit="10"/>
<path d="M538.97 747.997L462.342 747.791" stroke="#808286" stroke-width="3.04339" stroke-miterlimit="10"/>
<path d="M423.307 1015.74C423.135 1079.18 371.536 1130.48 308.056 1130.3C244.576 1130.13 193.253 1078.56 193.423 1015.12C193.594 951.672 245.194 900.379 308.674 900.549C372.155 900.72 423.478 952.291 423.307 1015.74Z" fill="#9DBCE3"/>
<path d="M250.895 1015.27L289.105 1053.67L365.938 977.29" stroke="white" stroke-width="3.04339" stroke-miterlimit="10"/>
<path d="M461.724 977.546L691.606 978.165" stroke="#9DBCE3" stroke-width="3.04339" stroke-miterlimit="10"/>
<path d="M729.92 978.268L806.546 978.474" stroke="#9DBCE3" stroke-width="3.04339" stroke-miterlimit="10"/>
<path d="M806.341 1055.06L576.459 1054.44" stroke="#9DBCE3" stroke-width="3.04339" stroke-miterlimit="10"/>
<path d="M538.145 1054.34L461.518 1054.13" stroke="#9DBCE3" stroke-width="3.04339" stroke-miterlimit="10"/>
<path d="M422.482 1322.08C422.311 1385.52 370.712 1436.82 307.232 1436.65C243.752 1436.48 192.429 1384.9 192.599 1321.46C192.771 1258.01 244.369 1206.72 307.851 1206.89C371.331 1207.06 422.654 1258.63 422.482 1322.08Z" fill="#9DBCE3"/>
<path d="M250.07 1321.61L288.281 1360.01L365.115 1283.63" stroke="white" stroke-width="3.04339" stroke-miterlimit="10"/>
<path d="M460.898 1283.89L690.781 1284.51" stroke="#9DBCE3" stroke-width="3.04339" stroke-miterlimit="10"/>
<path d="M729.095 1284.61L805.722 1284.82" stroke="#9DBCE3" stroke-width="3.04339" stroke-miterlimit="10"/>
<path d="M805.517 1361.4L575.635 1360.78" stroke="#9DBCE3" stroke-width="3.04339" stroke-miterlimit="10"/>
<path d="M537.32 1360.68L460.692 1360.47" stroke="#9DBCE3" stroke-width="3.04339" stroke-miterlimit="10"/>
<path d="M731.879 250.708L272.114 249.472L271.805 364.35C271.757 382.062 283.748 396.997 300.077 401.416C303.244 402.274 306.577 402.736 310.015 402.746L693.152 403.776C714.312 403.832 731.511 386.735 731.569 365.586L731.879 250.708ZM712.671 269.803L712.412 365.535C712.398 370.648 710.393 375.452 706.764 379.058C703.138 382.664 698.322 384.643 693.204 384.63L310.067 383.6C308.369 383.595 306.692 383.371 305.085 382.937C296.746 380.679 290.938 373.057 290.962 364.402L291.219 268.67L712.671 269.803Z" fill="#808286"/>
<path d="M1302.46 924.307L1105.08 871.448L1122.71 805.691L1320.09 858.55L1302.46 924.307Z" fill="#808286"/>
<path d="M1223.44 956.005L1157.65 938.385L1179.68 856.19L1245.48 873.81L1223.44 956.005Z" fill="#808286"/>
<path d="M1380 1099.46L1346 1040.53L1395 1012.27L1429 1071.21L1380 1099.46Z" fill="#808286"/>
<path d="M889.754 1148.55C855.729 1275.47 931.367 1406.37 1058.33 1440.37C1185.29 1474.37 1316.28 1398.8 1350.3 1271.89C1384.33 1144.97 1308.69 1014.07 1181.73 980.074C1054.77 946.074 923.779 1021.64 889.754 1148.55Z" fill="white"/>
<path d="M1181.73 980.074C1054.77 946.073 923.779 1021.64 889.754 1148.55C855.728 1275.47 931.368 1406.37 1058.33 1440.37C1185.29 1474.37 1316.28 1398.8 1350.3 1271.89C1384.33 1144.97 1308.69 1014.07 1181.73 980.074ZM1040.7 1506.12C877.448 1462.41 780.218 1294.09 823.961 1130.93C867.703 967.776 1036.11 870.6 1199.36 914.317C1362.61 958.035 1459.84 1126.35 1416.09 1289.51C1372.35 1452.67 1203.94 1549.84 1040.7 1506.12Z" fill="#FD92B4"/>
<path d="M1067.14 1407.49C958.325 1378.35 893.486 1266.14 922.65 1157.36C951.814 1048.58 1064.1 983.809 1172.92 1012.95C1191.06 1017.81 1201.87 1036.48 1197 1054.64C1192.13 1072.8 1173.43 1083.57 1155.29 1078.71C1082.71 1059.27 1007.88 1102.47 988.443 1174.98C969.003 1247.49 1012.19 1322.3 1084.77 1341.73C1102.91 1346.59 1113.72 1365.26 1108.85 1383.42C1103.98 1401.58 1085.28 1412.35 1067.14 1407.49Z" fill="#FD92B4"/>
<path d="M1251.67 1245.47C1256.47 1227.57 1275.16 1216.8 1293.05 1221.59C1311.45 1226.52 1322.26 1245.19 1317.46 1263.09C1312.53 1281.48 1293.82 1292.28 1275.42 1287.35C1257.53 1282.56 1246.73 1263.86 1251.67 1245.47ZM1173.32 1375.58C1164.25 1359.05 1169.89 1338.02 1186.43 1328.93C1202.98 1319.82 1223.34 1325.85 1232.46 1342.38C1241.67 1358.37 1236.03 1379.41 1219.49 1388.52C1211.52 1393.16 1202.25 1394.03 1194.33 1391.92C1185.39 1389.52 1177.95 1383.59 1173.32 1375.58Z" fill="#FD92B4"/>
<path d="M1111.21 1243.1C1093.07 1238.24 1082.27 1219.54 1087.13 1201.41C1091.99 1183.28 1110.7 1172.48 1128.84 1177.34C1146.99 1182.2 1157.79 1200.89 1152.92 1219.03C1148.06 1237.16 1129.36 1247.96 1111.21 1243.1Z" fill="#808286"/>
<path d="M1120.03 1210.22C1110.93 1207.78 1105.56 1198.44 1107.99 1189.38L1152.06 1024.99C1154.49 1015.92 1163.82 1010.51 1172.92 1012.95C1182.01 1015.39 1187.39 1024.73 1184.96 1033.8L1140.88 1198.19C1138.45 1207.25 1129.13 1212.66 1120.03 1210.22Z" fill="#808286"/>
<path d="M1167.34 576.407C1167.34 522.979 1210.68 479.668 1264.14 479.668C1317.59 479.668 1360.93 522.979 1360.93 576.407C1360.93 629.835 1317.59 673.146 1264.14 673.146C1210.68 673.146 1167.34 629.835 1167.34 576.407Z" stroke="#9DBCE3" stroke-width="2.56279" stroke-miterlimit="10" stroke-linecap="square" stroke-dasharray="0 8.05"/>
<path d="M1060.47 296.265C1060.47 269.551 1082.14 247.895 1108.87 247.895C1135.59 247.895 1157.26 269.551 1157.26 296.265C1157.26 322.979 1135.59 344.635 1108.87 344.635C1082.14 344.635 1060.47 322.979 1060.47 296.265Z" stroke="#9DBCE3" stroke-width="2.56279" stroke-miterlimit="10" stroke-linecap="square"/>
<path d="M1302.45 255.956C1302.45 229.242 1324.12 207.587 1350.85 207.587C1377.58 207.587 1399.24 229.242 1399.24 255.956C1399.24 282.67 1377.58 304.326 1350.85 304.326C1324.12 304.326 1302.45 282.67 1302.45 255.956Z" fill="#FD92B4"/>
<path d="M1191.54 24.1849C1191.54 10.8279 1202.38 0.000620952 1215.74 0.000620952C1229.1 0.000620952 1239.94 10.8279 1239.94 24.1849C1239.94 37.5419 1229.1 48.3691 1215.74 48.3691C1202.38 48.3691 1191.54 37.5419 1191.54 24.1849Z" fill="#FD92B4"/>
</g>
</svg>
