<svg width="1440" height="1690" viewBox="0 0 1440 1690" fill="none" xmlns="http://www.w3.org/2000/svg">
<path opacity="0.1" d="M1166.2 1605.21C1166.2 1623.01 959.999 1637.31 705.799 1637.31C451.599 1637.31 245.399 1623.01 245.399 1605.21C245.399 1587.51 451.599 1573.21 705.799 1573.21C959.999 1573.21 1166.2 1587.51 1166.2 1605.21Z" fill="url(#paint0_linear_81_221)"/>
<path d="M748.2 737.314C741.6 734.214 738.3 725.014 740.5 718.614C743 711.114 751.2 712.214 754.4 704.714C758.4 695.114 748.5 685.714 752.1 682.314C755.1 679.414 764.2 681.014 767.9 688.814C770 693.214 772.2 699.214 769.7 705.814C766.6 714.014 755.7 717.614 755.1 722.514C754.5 728.314 763 731.814 761.6 735.414C760.5 738.414 753.3 739.714 748.2 737.314Z" fill="url(#paint1_linear_81_221)"/>
<path d="M802.3 860.714C799 854.214 802.2 845.014 808 841.314C814.7 837.014 820.4 842.914 827.6 838.914C836.8 833.914 834.9 820.414 839.8 820.014C844 819.614 850.1 826.414 848.2 834.914C847 839.614 845 845.614 838.9 849.214C831.3 853.714 820.5 849.914 817 853.414C812.8 857.514 817.3 865.414 814 867.414C811.2 869.114 804.8 865.714 802.3 860.714Z" fill="url(#paint2_linear_81_221)"/>
<path d="M643.3 750.515C636.1 752.115 627.9 746.815 625.6 740.415C622.9 732.915 630.1 728.915 627.9 721.015C625.2 711.015 611.5 709.615 612.2 704.715C612.8 700.615 621 696.315 628.8 700.215C633.1 702.415 638.6 705.815 640.7 712.615C643.3 720.915 636.9 730.415 639.6 734.615C642.6 739.615 651.5 737.115 652.6 740.815C653.6 743.915 648.7 749.215 643.3 750.515Z" fill="#AB6DFF"/>
<path d="M765.6 851.115V838.415C765.7 805.415 778.3 774.115 801.8 749.315C803.2 747.815 804 747.015 804 747.015L826.8 766.015C804.8 781.215 787.9 801.215 777.6 824.115L765.6 851.115Z" fill="url(#paint3_linear_81_221)"/>
<path d="M848.2 918.514L856.4 908.614C877.5 883.214 907.4 867.014 941.4 862.614C943.4 862.314 944.6 862.214 944.6 862.214L950 891.214C923.2 889.114 897.4 893.914 874.8 905.214L848.2 918.514Z" fill="#AB6DFF"/>
<path d="M765.8 977.914L773.2 972.714C792 959.314 814.5 951.514 837.2 950.714C838.5 950.614 839.3 950.614 839.3 950.614L836.7 967.414C820 964.914 802.5 966.414 785.7 971.714L765.8 977.914Z" fill="url(#paint4_linear_81_221)"/>
<path d="M555.4 988.714C549.6 991.714 540.9 988.014 537 981.914C532.5 974.914 537.7 969.414 533.5 961.914C528.2 952.314 515.8 953.514 515 948.514C514.4 944.214 520.3 938.314 528.2 940.814C532.7 942.114 538.5 944.514 542.2 950.914C547 958.814 544.1 969.614 547.6 973.414C551.7 977.814 558.8 973.614 560.9 977.114C562.6 980.014 559.9 986.414 555.4 988.714Z" fill="url(#paint5_linear_81_221)"/>
<path d="M939.9 786.415L931.1 777.815L932.9 766.015L922.3 771.415L911.5 765.515L913.8 777.415L905.3 785.615L917.3 787.615L922.9 798.515L928 787.815L939.9 786.415Z" fill="url(#paint6_linear_81_221)"/>
<path d="M912.9 958.014L896.2 959.214L887.8 973.614L881.4 958.214L865 954.714L877.7 944.014L876 927.414L890.3 936.114L905.7 929.414L901.7 945.614L912.9 958.014Z" fill="url(#paint7_linear_81_221)"/>
<path d="M751.3 919.015C757.1 923.415 766.8 922.015 771.6 917.115C777.1 911.415 772.4 904.815 777.7 898.515C784.4 890.615 797.4 894.915 798.8 890.315C800 886.315 794.4 879.015 785.6 879.315C780.7 879.515 774.4 880.415 769.6 885.615C763.7 892.115 765.5 903.315 761.3 906.115C756.4 909.315 749.4 903.515 746.8 906.315C744.6 908.715 746.8 915.615 751.3 919.015Z" fill="url(#paint8_linear_81_221)"/>
<path d="M615.799 928.214C623.199 928.114 629.899 921.014 630.599 914.314C631.399 906.414 623.399 904.114 623.699 895.914C623.899 885.614 636.899 881.014 634.999 876.514C633.399 872.614 624.499 870.414 617.899 876.014C614.099 879.114 609.699 883.814 609.199 890.814C608.699 899.514 617.199 907.214 615.599 911.914C613.799 917.514 604.699 917.214 604.399 921.114C604.199 924.314 610.199 928.314 615.799 928.214Z" fill="url(#paint9_linear_81_221)"/>
<path d="M787.8 1017.41C789.6 1024.41 798.1 1029.21 804.9 1028.31C812.9 1027.21 813.2 1019.01 821.3 1017.31C831.5 1015.11 839.1 1026.51 843.1 1023.61C846.5 1021.21 846.6 1012.01 839.5 1007.01C835.5 1004.11 829.9 1001.01 822.9 1002.21C814.3 1003.71 808.7 1013.71 803.7 1013.31C797.8 1012.91 796 1004.01 792.1 1004.71C788.9 1005.21 786.4 1012.01 787.8 1017.41Z" fill="#AB6DFF"/>
<path d="M641.3 956.114L652.7 950.214C682.2 935.014 704.4 909.414 715.9 877.414C716.5 875.414 716.9 874.314 716.9 874.314L689.4 863.114C685.9 889.514 675.8 913.514 659.9 933.114L641.3 956.114Z" fill="url(#paint10_linear_81_221)"/>
<path d="M542.9 914.514L548 902.714C561 872.414 561.8 838.714 550.1 806.714C549.4 804.814 549 803.714 549 803.714L520.5 812.314C534.7 834.914 542.3 859.914 542.6 884.914L542.9 914.514Z" fill="#AB6DFF"/>
<path d="M679 1018.91L682.1 1010.51C689.9 988.815 703.9 969.815 722.1 956.315C723.2 955.515 723.8 955.015 723.8 955.015L731.3 970.315C716.1 977.715 702.5 988.815 691.8 1002.61L679 1018.91Z" fill="url(#paint11_linear_81_221)"/>
<path d="M619.1 773.014L630.8 776.814L640.5 769.814L640.6 781.514L650.8 788.314L639.1 791.814L635.7 803.014L628.4 793.414L616.1 793.514L623.2 784.114L619.1 773.014Z" fill="url(#paint12_linear_81_221)"/>
<path d="M551.9 735.914L558.5 751.214L549.5 765.314L566.2 763.814L576.9 776.614L580.7 760.414L596.3 754.314L581.9 745.814L580.8 729.214L568.2 740.114L551.9 735.914Z" fill="url(#paint13_linear_81_221)"/>
<path d="M582.2 967.114L588.8 982.414L579.8 996.514L596.5 995.014L607.2 1007.81L611 991.614L626.6 985.514L612.2 977.014L611.1 960.414L598.5 971.314L582.2 967.114Z" fill="url(#paint14_linear_81_221)"/>
<path d="M582.2 967.114L588.8 982.414L579.8 996.514L596.5 995.014L607.2 1007.81L611 991.614L626.6 985.514L612.2 977.014L611.1 960.414L598.5 971.314L582.2 967.114Z" fill="url(#paint15_linear_81_221)"/>
<path d="M912.3 227.614C922.6 221.314 926.1 205.614 921.2 195.414C915.6 183.514 902.4 187.014 895.7 175.214C887.2 160.314 901.6 142.914 895.1 138.114C889.5 133.914 874.9 138.314 870.4 151.814C867.8 159.514 865.5 169.714 870.9 180.114C877.5 192.914 896.1 196.714 898 204.714C900.2 214.114 887 221.314 889.9 227.014C892.4 231.814 904.4 232.414 912.3 227.614Z" fill="url(#paint16_linear_81_221)"/>
<path d="M847.9 440.414C852 429.114 844.9 414.714 834.7 409.714C822.8 403.914 814.7 414.714 802.1 409.714C786 403.214 786.4 380.714 778.3 380.914C771.3 381.114 762.6 393.514 767.6 406.914C770.3 414.514 774.9 424.014 785.6 428.714C798.9 434.714 815.9 426.214 822.4 431.314C830 437.314 824.2 451.114 830.1 453.814C835 456.014 844.8 449.114 847.9 440.414Z" fill="url(#paint17_linear_81_221)"/>
<path d="M1087 228.915C1099.1 230.215 1111.5 219.915 1114 208.915C1116.9 196.115 1104.4 190.915 1106.4 177.515C1108.9 160.515 1131.1 155.615 1129 147.815C1127.1 141.215 1112.9 135.715 1100.9 143.615C1094.2 148.115 1085.9 154.715 1083.8 166.215C1081.1 180.415 1093.4 194.715 1090 202.115C1085.9 210.915 1070.9 208.615 1069.7 214.915C1068.7 220.115 1077.8 227.915 1087 228.915Z" fill="#AB6DFF"/>
<path d="M906.2 417.714L903.7 396.714C897.1 342.714 870.1 293.714 826.8 257.614C824.1 255.414 822.6 254.314 822.6 254.314L789 289.914C828.2 310.614 859.8 340.114 881.1 375.714L906.2 417.714Z" fill="url(#paint18_linear_81_221)"/>
<path d="M930.799 625.714L917.799 618.614C884.299 600.214 845.799 591.814 808.399 594.814C806.099 594.914 804.899 595.114 804.899 595.114L812.399 622.114C839.399 614.814 868.499 613.814 897.099 619.314L930.799 625.714Z" fill="url(#paint19_linear_81_221)"/>
<path d="M1278.1 602.615C1288.1 606.415 1301.8 598.615 1306.9 587.915C1312.9 575.515 1303.4 567.515 1308.8 554.415C1315.6 537.615 1336.2 537.215 1336.4 528.915C1336.6 521.715 1325.8 513.215 1313.2 518.715C1306.1 521.815 1297.2 526.915 1292.2 538.115C1286.1 552.015 1292.9 569.115 1287.9 576.015C1282 584.115 1269.6 578.615 1266.8 584.715C1264.6 589.815 1270.3 599.715 1278.1 602.615Z" fill="url(#paint20_linear_81_221)"/>
<path d="M685.6 621.414L713.3 620.314L729.9 642.214L737.4 615.814L763.6 606.814L740.6 591.614L740.1 564.214L718.4 581.214L691.9 573.214L701.5 598.914L685.6 621.414Z" fill="url(#paint21_linear_81_221)"/>
<path d="M943.1 526.214C934.4 534.614 918.2 534.214 909.4 527.114C899.1 518.814 905.7 507.014 895.8 497.714C883.2 486.014 862.7 495.714 859.5 488.314C856.7 481.914 864.5 468.914 878.9 467.814C887 467.114 897.6 467.314 906.4 475.014C917.4 484.514 916.7 503.314 924 507.014C932.7 511.414 943 500.414 947.9 504.614C951.9 508.114 949.7 519.814 943.1 526.214Z" fill="url(#paint22_linear_81_221)"/>
<path d="M1167 515.114C1155 516.414 1142.5 506.114 1140.1 495.114C1137.2 482.314 1149.8 477.114 1147.9 463.714C1145.4 446.714 1123.2 441.714 1125.4 433.914C1127.2 427.314 1141.5 421.914 1153.4 429.814C1160.2 434.314 1168.4 441.014 1170.5 452.414C1173.1 466.614 1160.8 480.914 1164.2 488.414C1168.2 497.114 1183.2 494.914 1184.4 501.214C1185.4 506.414 1176.3 514.214 1167 515.114Z" fill="url(#paint23_linear_81_221)"/>
<path d="M902.6 694.614C901 706.514 887.9 716.114 876.6 715.814C863.4 715.614 861.2 702.214 847.6 701.014C830.4 699.414 820.2 719.514 813.1 715.614C807 712.314 805.1 697.314 815.7 687.614C821.7 682.214 830.2 675.914 841.9 676.514C856.4 677.314 867.6 692.614 875.7 691.114C885.2 689.214 886.5 674.314 893 674.614C898.3 674.914 903.8 685.514 902.6 694.614Z" fill="#AB6DFF"/>
<path d="M1130.8 565.815L1110.9 558.315C1059.5 539.115 1018 501.415 992.9 451.115C991.4 448.015 990.7 446.315 990.7 446.315L1033.6 422.515C1044.5 465.115 1065.9 502.615 1095.7 531.615L1130.8 565.815Z" fill="url(#paint24_linear_81_221)"/>
<path d="M1284 478.515L1273.4 460.115C1246 413.015 1238 357.815 1250.9 303.115C1251.7 299.815 1252.2 298.015 1252.2 298.015L1300.6 306.515C1281.8 346.415 1274.3 388.815 1278.7 429.915L1284 478.515Z" fill="#AB6DFF"/>
<path d="M1081.2 676.115L1074.6 662.915C1057.6 628.915 1030.8 600.315 998.299 581.715C996.299 580.615 995.199 580.015 995.199 580.015L985.899 606.515C1012.3 615.615 1036.8 631.215 1057.2 651.815L1081.2 676.115Z" fill="url(#paint25_linear_81_221)"/>
<path d="M1131.1 261.115L1112.7 269.615L1095.3 260.015L1097.5 279.315L1082.1 292.415L1102 295.815L1109.8 313.615L1119.9 296.415L1140.1 294.215L1126.5 280.215L1131.1 261.115Z" fill="url(#paint26_linear_81_221)"/>
<path d="M1234 187.314L1226.2 213.714L1243.8 235.014L1216.1 235.814L1201.1 258.914L1191.7 233.114L1164.9 226.114L1186.8 209.314L1185.2 181.814L1208.1 197.314L1234 187.314Z" fill="url(#paint27_linear_81_221)"/>
<path d="M1229.9 572.414L1222.1 598.814L1239.7 620.114L1212 620.914L1197 644.114L1187.6 618.214L1160.8 611.214L1182.7 594.414L1181.1 566.914L1204 582.414L1229.9 572.414Z" fill="url(#paint28_linear_81_221)"/>
<path d="M286.2 954.715L398.9 1605.21H1008.7L1155.4 937.515L286.2 954.715Z" fill="#FD92B4"/>
<g opacity="0.1">
<path d="M890.1 988.814C890 1004.31 882.8 1016.71 874 1016.71C865.2 1016.61 858.1 1004.11 858.2 988.615C858.3 973.215 865.5 960.814 874.3 960.814C883.1 960.914 890.2 973.414 890.1 988.814Z" fill="white"/>
<path d="M899.4 1114.61C899.4 1123.41 887.8 1130.41 873.6 1130.31C859.5 1130.21 848 1123.11 848 1114.31C848.1 1105.61 859.6 1098.61 873.8 1098.61C888 1098.71 899.5 1105.91 899.4 1114.61Z" fill="white"/>
<path d="M906.9 1187.31C906.8 1196.01 895.3 1203.11 881.1 1203.01C866.9 1202.91 855.4 1195.81 855.4 1187.01C855.5 1178.31 867 1171.21 881.2 1171.31C895.4 1171.41 906.9 1178.61 906.9 1187.31Z" fill="white"/>
<path d="M951.2 1048.61C951.2 1057.41 939.6 1064.41 925.4 1064.31C911.2 1064.21 899.8 1057.11 899.8 1048.31C899.9 1039.61 911.4 1032.61 925.6 1032.71C939.8 1032.71 951.3 1039.91 951.2 1048.61Z" fill="white"/>
<path d="M761.2 1048.11C761.1 1057.61 758.3 1065.31 754.9 1065.31C751.5 1065.21 748.7 1057.51 748.8 1048.01C748.9 1038.61 751.7 1030.91 755.1 1030.91C758.5 1030.91 761.2 1038.61 761.2 1048.11Z" fill="white"/>
<path d="M845.4 1245.61C845.4 1251.81 834.4 1256.71 820.9 1256.71C807.4 1256.61 796.5 1251.51 796.5 1245.31C796.6 1239.21 807.5 1234.21 821 1234.31C834.5 1234.41 845.4 1239.51 845.4 1245.61Z" fill="white"/>
<path d="M826.2 1042.01C826.1 1055.11 821.9 1065.61 816.8 1065.61C811.7 1065.61 807.6 1054.91 807.6 1041.91C807.7 1028.81 811.9 1018.21 817.1 1018.21C822.2 1018.21 826.3 1028.91 826.2 1042.01Z" fill="white"/>
<path d="M799.1 1131.71C799 1143.01 793.1 1152.21 785.8 1152.11C778.5 1152.11 772.7 1142.91 772.7 1131.61C772.8 1120.31 778.8 1111.11 786 1111.21C793.3 1111.21 799.1 1120.41 799.1 1131.71Z" fill="white"/>
<path d="M800.4 911.015C800.3 929.015 795.1 943.615 788.9 943.515C782.7 943.515 777.7 928.915 777.8 910.915C777.9 892.915 783 878.315 789.3 878.415C795.5 878.415 800.5 893.015 800.4 911.015Z" fill="white"/>
<path d="M1091.9 1069.91C1091.8 1085.31 1084.5 1097.81 1075.7 1097.71C1066.9 1097.71 1059.8 1085.11 1059.9 1069.71C1060 1054.31 1067.2 1041.81 1076 1041.91C1084.9 1041.91 1092 1054.51 1091.9 1069.91Z" fill="white"/>
<path d="M1101.2 1195.71C1101.1 1204.41 1089.6 1211.41 1075.4 1211.41C1061.2 1211.31 1049.7 1204.11 1049.8 1195.41C1049.8 1186.61 1061.4 1179.61 1075.6 1179.71C1089.8 1179.81 1101.2 1186.91 1101.2 1195.71Z" fill="white"/>
<path d="M1108.6 1268.41C1108.5 1277.11 1097 1284.11 1082.8 1284.01C1068.6 1284.01 1057.1 1276.81 1057.2 1268.11C1057.2 1259.31 1068.8 1252.31 1083 1252.41C1097.2 1252.51 1108.6 1259.61 1108.6 1268.41Z" fill="white"/>
<path d="M1153 1129.71C1152.9 1138.41 1141.4 1145.51 1127.2 1145.41C1113 1145.31 1101.5 1138.21 1101.6 1129.41C1101.6 1120.71 1113.2 1113.61 1127.4 1113.71C1141.6 1113.81 1153 1121.01 1153 1129.71Z" fill="white"/>
<path d="M962.9 1129.21C962.9 1138.71 960 1146.31 956.6 1146.31C953.2 1146.31 950.5 1138.61 950.5 1129.11C950.6 1119.61 953.4 1111.91 956.8 1112.01C960.2 1112.01 963 1119.71 962.9 1129.21Z" fill="white"/>
<path d="M1047.1 1326.71C1047.1 1332.91 1036.1 1337.81 1022.6 1337.71C1009.1 1337.61 998.2 1332.61 998.2 1326.41C998.3 1320.21 1009.3 1315.31 1022.8 1315.41C1036.2 1315.41 1047.2 1320.51 1047.1 1326.71Z" fill="white"/>
<path d="M1027.9 1123.01C1027.9 1136.11 1023.6 1146.71 1018.5 1146.71C1013.4 1146.61 1009.3 1136.01 1009.4 1122.91C1009.4 1109.81 1013.7 1099.21 1018.8 1099.31C1023.9 1099.31 1028 1109.91 1027.9 1123.01Z" fill="white"/>
<path d="M1000.8 1212.81C1000.7 1224.11 994.8 1233.21 987.5 1233.21C980.2 1233.21 974.4 1224.01 974.5 1212.61C974.5 1201.31 980.5 1192.21 987.8 1192.21C995 1192.31 1000.9 1201.51 1000.8 1212.81Z" fill="white"/>
<path d="M1002.1 992.115C1002 1010.11 996.8 1024.61 990.6 1024.61C984.4 1024.61 979.4 1009.91 979.5 991.915C979.6 973.915 984.8 959.415 991 959.415C997.2 959.515 1002.2 974.115 1002.1 992.115Z" fill="white"/>
<path d="M1014.1 1354.41C1014 1369.91 1006.7 1382.31 997.9 1382.31C989.1 1382.21 982 1369.71 982.1 1354.21C982.2 1338.81 989.4 1326.41 998.2 1326.41C1007.1 1326.51 1014.2 1339.01 1014.1 1354.41Z" fill="white"/>
<path d="M1023.4 1480.21C1023.3 1489.01 1011.8 1496.01 997.6 1495.91C983.4 1495.81 971.9 1488.71 972 1479.91C972 1471.21 983.6 1464.21 997.8 1464.21C1012 1464.31 1023.4 1471.51 1023.4 1480.21Z" fill="white"/>
<path d="M1030.8 1552.91C1030.7 1561.61 1019.2 1568.71 1005 1568.61C990.8 1568.51 979.3 1561.41 979.4 1552.61C979.4 1543.91 991 1536.81 1005.2 1536.91C1019.4 1537.01 1030.8 1544.21 1030.8 1552.91Z" fill="white"/>
<path d="M1075.2 1414.21C1075.1 1423.01 1063.6 1430.01 1049.4 1429.91C1035.2 1429.81 1023.7 1422.71 1023.8 1413.91C1023.8 1405.21 1035.4 1398.21 1049.6 1398.31C1063.8 1398.31 1075.2 1405.51 1075.2 1414.21Z" fill="white"/>
<path d="M885.1 1413.71C885.1 1423.21 882.2 1430.91 878.8 1430.91C875.4 1430.81 872.7 1423.11 872.7 1413.61C872.8 1404.21 875.6 1396.51 879 1396.51C882.4 1396.51 885.2 1404.21 885.1 1413.71Z" fill="white"/>
<path d="M969.3 1611.21C969.3 1617.41 958.3 1622.31 944.8 1622.31C931.3 1622.21 920.4 1617.11 920.4 1610.91C920.5 1604.81 931.5 1599.81 945 1599.91C958.4 1600.01 969.4 1605.11 969.3 1611.21Z" fill="white"/>
<path d="M950.1 1407.61C950.1 1420.71 945.8 1431.21 940.7 1431.21C935.6 1431.21 931.5 1420.51 931.6 1407.51C931.6 1394.41 935.9 1383.81 941 1383.81C946.1 1383.81 950.2 1394.51 950.1 1407.61Z" fill="white"/>
<path d="M923 1497.31C922.9 1508.61 917 1517.81 909.7 1517.71C902.4 1517.71 896.6 1508.51 896.7 1497.21C896.7 1485.91 902.7 1476.71 910 1476.81C917.2 1476.81 923.1 1486.01 923 1497.31Z" fill="white"/>
<path d="M924.3 1276.61C924.2 1294.61 919 1309.21 912.8 1309.11C906.6 1309.11 901.6 1294.51 901.7 1276.51C901.8 1258.51 907 1243.91 913.2 1244.01C919.4 1244.01 924.4 1258.61 924.3 1276.61Z" fill="white"/>
<path d="M818.9 1320.31C818.8 1335.81 811.6 1348.21 802.8 1348.21C794 1348.11 786.9 1335.61 787 1320.21C787.1 1304.71 794.3 1292.31 803.1 1292.31C811.9 1292.41 819 1304.91 818.9 1320.31Z" fill="white"/>
<path d="M828.2 1446.11C828.2 1454.91 816.6 1461.91 802.4 1461.81C788.2 1461.71 776.8 1454.61 776.8 1445.81C776.9 1437.11 788.4 1430.11 802.6 1430.11C816.8 1430.21 828.3 1437.41 828.2 1446.11Z" fill="white"/>
<path d="M835.6 1518.81C835.6 1527.51 824 1534.61 809.8 1534.51C795.6 1534.41 784.2 1527.31 784.2 1518.51C784.3 1509.81 795.8 1502.71 810 1502.81C824.2 1502.91 835.7 1510.11 835.6 1518.81Z" fill="white"/>
<path d="M880 1380.11C880 1388.91 868.4 1395.91 854.2 1395.81C840 1395.71 828.6 1388.61 828.6 1379.91C828.7 1371.11 840.2 1364.11 854.4 1364.21C868.6 1364.21 880.1 1371.41 880 1380.11Z" fill="white"/>
<path d="M690 1379.61C689.9 1389.11 687.1 1396.81 683.7 1396.81C680.3 1396.71 677.5 1389.01 677.6 1379.51C677.6 1370.11 680.5 1362.41 683.9 1362.41C687.3 1362.41 690 1370.11 690 1379.61Z" fill="white"/>
<path d="M774.2 1577.11C774.1 1583.31 763.2 1588.21 749.7 1588.21C736.2 1588.11 725.3 1583.01 725.3 1576.81C725.3 1570.71 736.3 1565.71 749.8 1565.81C763.3 1565.91 774.2 1571.01 774.2 1577.11Z" fill="white"/>
<path d="M755 1373.51C754.9 1386.61 750.7 1397.11 745.6 1397.11C740.4 1397.11 736.3 1386.51 736.4 1373.41C736.5 1360.31 740.7 1349.71 745.8 1349.71C751 1349.71 755.1 1360.41 755 1373.51Z" fill="white"/>
<path d="M727.8 1463.21C727.8 1474.61 721.8 1483.71 714.6 1483.61C707.3 1483.61 701.5 1474.41 701.5 1463.11C701.6 1451.81 707.5 1442.61 714.8 1442.71C722.1 1442.71 727.9 1451.91 727.8 1463.21Z" fill="white"/>
<path d="M729.1 1242.51C729 1260.51 723.9 1275.11 717.7 1275.01C711.4 1275.01 706.5 1260.41 706.6 1242.41C706.7 1224.41 711.8 1209.81 718.1 1209.91C724.3 1209.91 729.2 1224.51 729.1 1242.51Z" fill="white"/>
<path d="M520 1057.01C519.9 1072.41 527 1085.01 535.8 1085.01C544.6 1085.11 551.8 1072.61 551.9 1057.21C552 1041.81 544.9 1029.21 536.1 1029.21C527.3 1029.11 520.1 1041.61 520 1057.01Z" fill="white"/>
<path d="M509.2 1182.71C509.1 1191.41 520.6 1198.61 534.8 1198.71C549 1198.71 560.5 1191.71 560.6 1183.01C560.6 1174.21 549.2 1167.11 535 1167.01C520.8 1166.91 509.2 1173.91 509.2 1182.71Z" fill="white"/>
<path d="M500.9 1255.31C500.9 1264.01 512.3 1271.21 526.5 1271.31C540.7 1271.31 552.3 1264.31 552.3 1255.61C552.4 1246.81 540.9 1239.71 526.7 1239.61C512.5 1239.51 501 1246.51 500.9 1255.31Z" fill="white"/>
<path d="M458.2 1116.11C458.1 1124.91 469.6 1132.01 483.8 1132.11C498 1132.21 509.5 1125.21 509.6 1116.41C509.6 1107.71 498.2 1100.51 484 1100.41C469.8 1100.31 458.2 1107.41 458.2 1116.11Z" fill="white"/>
<path d="M648.2 1117.81C648.2 1127.31 650.9 1135.01 654.3 1135.01C657.7 1135.01 660.5 1127.31 660.6 1117.81C660.7 1108.41 657.9 1100.61 654.5 1100.61C651.1 1100.61 648.3 1108.31 648.2 1117.81Z" fill="white"/>
<path d="M561.7 1314.31C561.7 1320.51 572.6 1325.51 586.1 1325.61C599.6 1325.71 610.5 1320.71 610.6 1314.61C610.6 1308.41 599.7 1303.31 586.2 1303.31C572.7 1303.21 561.7 1308.11 561.7 1314.31Z" fill="white"/>
<path d="M583.3 1110.91C583.2 1124.01 587.3 1134.61 592.4 1134.61C597.5 1134.71 601.8 1124.11 601.8 1111.01C601.9 1097.91 597.8 1087.31 592.7 1087.21C587.6 1087.21 583.4 1097.81 583.3 1110.91Z" fill="white"/>
<path d="M609.4 1200.91C609.3 1212.31 615.1 1221.51 622.4 1221.51C629.7 1221.61 635.6 1212.41 635.7 1201.11C635.7 1189.81 629.9 1180.61 622.6 1180.51C615.4 1180.51 609.4 1189.61 609.4 1200.91Z" fill="white"/>
<path d="M610.7 980.214C610.6 998.214 615.5 1012.91 621.7 1012.91C628 1012.91 633.1 998.414 633.2 980.414C633.3 962.414 628.4 947.714 622.1 947.714C615.9 947.714 610.8 962.214 610.7 980.214Z" fill="white"/>
<path d="M317.3 1135.71C317.2 1151.21 324.3 1163.71 333.1 1163.81C341.9 1163.81 349.2 1151.41 349.3 1135.91C349.4 1120.51 342.3 1107.91 333.5 1107.91C324.6 1107.81 317.4 1120.31 317.3 1135.71Z" fill="white"/>
<path d="M306.5 1261.41C306.5 1270.21 317.9 1277.31 332.1 1277.41C346.3 1277.51 357.9 1270.41 357.9 1261.71C358 1253.01 346.5 1245.81 332.3 1245.71C318.1 1245.61 306.6 1252.71 306.5 1261.41Z" fill="white"/>
<path d="M298.299 1334.01C298.199 1342.71 309.699 1349.91 323.899 1350.01C338.099 1350.11 349.6 1343.01 349.7 1334.31C349.7 1325.61 338.299 1318.41 324.099 1318.31C309.899 1318.21 298.299 1325.31 298.299 1334.01Z" fill="white"/>
<path d="M255.5 1194.81C255.5 1203.61 266.9 1210.71 281.1 1210.81C295.3 1210.91 306.9 1203.91 306.9 1195.11C307 1186.41 295.5 1179.21 281.3 1179.21C267.1 1179.11 255.6 1186.11 255.5 1194.81Z" fill="white"/>
<path d="M445.6 1196.52C445.5 1206.02 448.2 1213.71 451.6 1213.71C455.1 1213.71 457.9 1206.11 457.9 1196.61C458 1187.11 455.3 1179.42 451.8 1179.42C448.4 1179.32 445.6 1187.02 445.6 1196.52Z" fill="white"/>
<path d="M359 1393.01C359 1399.21 369.9 1404.31 383.4 1404.31C396.9 1404.41 407.9 1399.51 407.9 1393.31C407.9 1387.11 397 1382.11 383.5 1382.01C370 1381.91 359.1 1386.91 359 1393.01Z" fill="white"/>
<path d="M380.6 1189.61C380.5 1202.71 384.6 1213.31 389.8 1213.41C394.9 1213.41 399.1 1202.81 399.2 1189.71C399.3 1176.61 395.2 1166.01 390 1166.01C384.9 1165.91 380.7 1176.51 380.6 1189.61Z" fill="white"/>
<path d="M406.7 1279.71C406.6 1291.01 412.5 1300.21 419.7 1300.21C427 1300.31 432.9 1291.11 433 1279.81C433.1 1268.51 427.2 1259.31 420 1259.31C412.7 1259.21 406.8 1268.41 406.7 1279.71Z" fill="white"/>
<path d="M408 1059.01C407.9 1077.01 412.8 1091.61 419.1 1091.61C425.3 1091.71 430.4 1077.11 430.5 1059.11C430.7 1041.11 425.7 1026.51 419.5 1026.41C413.2 1026.41 408.1 1041.01 408 1059.01Z" fill="white"/>
<path d="M391.8 1421.21C391.7 1436.61 398.8 1449.11 407.6 1449.21C416.4 1449.21 423.6 1436.81 423.7 1421.31C423.8 1405.91 416.7 1393.41 407.9 1393.31C399.1 1393.31 391.9 1405.71 391.8 1421.21Z" fill="white"/>
<path d="M381 1546.81C380.9 1555.61 392.4 1562.71 406.6 1562.81C420.8 1562.91 432.3 1555.91 432.4 1547.11C432.4 1538.41 421 1531.21 406.8 1531.11C392.6 1531.11 381 1538.11 381 1546.81Z" fill="white"/>
<path d="M372.7 1619.41C372.7 1628.21 384.1 1635.31 398.3 1635.41C412.5 1635.51 424.1 1628.51 424.1 1619.71C424.2 1611.01 412.7 1603.81 398.5 1603.71C384.3 1603.71 372.8 1610.71 372.7 1619.41Z" fill="white"/>
<path d="M330 1480.31C329.9 1489.01 341.4 1496.21 355.6 1496.21C369.8 1496.31 381.3 1489.31 381.4 1480.61C381.4 1471.81 370 1464.71 355.8 1464.61C341.6 1464.51 330 1471.51 330 1480.31Z" fill="white"/>
<path d="M520 1481.91C520 1491.41 522.7 1499.11 526.1 1499.11C529.5 1499.21 532.3 1491.51 532.4 1482.01C532.4 1472.51 529.7 1464.81 526.3 1464.81C522.9 1464.81 520.1 1472.41 520 1481.91Z" fill="white"/>
<path d="M433.5 1678.41C433.5 1684.61 444.4 1689.71 457.9 1689.81C471.4 1689.81 482.3 1684.91 482.4 1678.71C482.4 1672.61 471.5 1667.51 458 1667.41C444.5 1667.31 433.5 1672.31 433.5 1678.41Z" fill="white"/>
<path d="M455.1 1475.01C455 1488.11 459.1 1498.71 464.2 1498.81C469.3 1498.81 473.6 1488.21 473.6 1475.11C473.7 1462.01 469.6 1451.41 464.5 1451.41C459.4 1451.31 455.1 1461.91 455.1 1475.01Z" fill="white"/>
<path d="M481.2 1565.11C481.1 1576.41 486.9 1585.61 494.2 1585.71C501.5 1585.71 507.4 1576.61 507.5 1565.21C507.5 1553.91 501.7 1544.71 494.4 1544.71C487.2 1544.61 481.2 1553.81 481.2 1565.11Z" fill="white"/>
<path d="M482.4 1344.41C482.3 1362.41 487.3 1377.01 493.5 1377.01C499.8 1377.11 504.9 1362.51 505 1344.51C505.1 1326.51 500.1 1311.91 493.9 1311.81C487.7 1311.81 482.6 1326.41 482.4 1344.41Z" fill="white"/>
<path d="M587.3 1389.31C587.2 1404.71 594.3 1417.31 603.1 1417.31C611.9 1417.41 619.2 1404.91 619.3 1389.51C619.3 1374.11 612.3 1361.51 603.4 1361.51C594.6 1361.41 587.4 1373.91 587.3 1389.31Z" fill="white"/>
<path d="M576.5 1515.01C576.5 1523.71 587.9 1530.91 602.1 1531.01C616.3 1531.01 627.9 1524.01 627.9 1515.31C628 1506.51 616.5 1499.41 602.3 1499.31C588.1 1499.21 576.6 1506.21 576.5 1515.01Z" fill="white"/>
<path d="M568.299 1587.61C568.199 1596.31 579.699 1603.51 593.899 1603.61C608.099 1603.61 619.6 1596.61 619.7 1587.91C619.7 1579.11 608.199 1572.01 593.999 1571.91C579.899 1571.81 568.299 1578.81 568.299 1587.61Z" fill="white"/>
<path d="M525.5 1448.41C525.4 1457.21 536.9 1464.31 551.1 1464.41C565.3 1464.51 576.8 1457.51 576.9 1448.71C577 1440.01 565.5 1432.81 551.3 1432.71C537.1 1432.61 525.6 1439.71 525.5 1448.41Z" fill="white"/>
<path d="M715.5 1450.11C715.5 1459.61 718.2 1467.31 721.6 1467.31C725.1 1467.31 727.9 1459.61 727.9 1450.11C728 1440.71 725.3 1432.91 721.8 1432.91C718.4 1432.91 715.6 1440.61 715.5 1450.11Z" fill="white"/>
<path d="M629 1646.61C629 1652.81 639.9 1657.81 653.4 1657.91C666.9 1658.01 677.9 1653.11 677.9 1646.91C677.9 1640.71 667 1635.61 653.5 1635.61C640 1635.51 629.1 1640.41 629 1646.61Z" fill="white"/>
<path d="M650.6 1443.21C650.5 1456.31 654.6 1466.91 659.7 1466.91C664.9 1467.01 669.1 1456.41 669.2 1443.31C669.2 1430.21 665.1 1419.61 660 1419.51C654.9 1419.51 650.7 1430.11 650.6 1443.21Z" fill="white"/>
<path d="M676.7 1533.21C676.6 1544.61 682.5 1553.81 689.7 1553.81C697 1553.91 702.9 1544.71 703 1533.41C703.1 1522.11 697.2 1512.91 690 1512.81C682.7 1512.81 676.8 1521.91 676.7 1533.21Z" fill="white"/>
<path d="M678 1312.51C677.9 1330.51 682.8 1345.21 689.1 1345.21C695.3 1345.21 700.4 1330.71 700.5 1312.71C700.6 1294.71 695.7 1280.01 689.4 1280.01C683.2 1280.01 678.1 1294.51 678 1312.51Z" fill="white"/>
</g>
<path opacity="0.1" d="M253.7 913.014C250 952.914 239.2 1056.01 286.2 1069.01C378.2 1094.51 709.6 1031.41 931.1 1082.21C1085.4 1117.71 797.4 1587.11 825.3 1640.31C844.7 1677.11 957.4 1673.11 1033 1624.61C1133.1 1560.41 1040 1438.71 1133.9 1234.61C1168.9 1158.41 1204.6 1121.71 1203.1 1046.41C1203.1 1046.41 1201.5 963.614 1143.8 885.714C1049.9 759.014 688.9 771.314 253.7 913.014Z" fill="#ED3E80"/>
<path d="M648 940.414L675.5 1605.21H774.8L806.2 936.214L648 940.414Z" fill="#844DA3"/>
<path opacity="0.2" d="M648 940.414L675.5 1605.21H774.8L806.2 936.214L648 940.414Z" fill="#6B3F85"/>
<path d="M1184.3 863.714C1212.4 865.614 1242.1 867.514 1272.5 877.414C1289.1 882.814 1390.8 915.814 1409.6 981.214C1428.2 1045.51 1307.2 1202.61 1299 1202.51C1283.1 1202.41 1263.7 1148.81 1231.5 1097.71C1182.4 1019.71 1109.8 1027.21 1117 967.314C1118.8 952.014 1130.7 889.514 1141.4 866.714C1143.6 861.914 1152.8 861.614 1184.3 863.714Z" fill="#844DA3"/>
<path d="M1184.3 863.714C1212.4 865.614 1242.1 867.514 1272.5 877.414C1289.1 882.814 1390.8 915.814 1409.6 981.214C1428.2 1045.51 1307.2 1202.61 1299 1202.51C1283.1 1202.41 1263.7 1148.81 1231.5 1097.71C1182.4 1019.71 1109.8 1027.21 1117 967.314C1118.8 952.014 1130.7 889.514 1141.4 866.714C1143.6 861.914 1152.8 861.614 1184.3 863.714Z" fill="#7C4899"/>
<path d="M1194.3 880.714C1223.1 883.714 1253.5 886.914 1284.8 897.214C1302.1 902.914 1406.9 937.614 1428.1 997.714C1448.9 1056.81 1329.7 1193.41 1321.3 1192.91C1305.1 1192.01 1283.7 1142.61 1249.3 1094.81C1196.8 1021.81 1122.9 1025.31 1128.5 971.414C1129.9 957.614 1140.2 901.514 1150.5 881.314C1152.7 877.114 1162.1 877.314 1194.3 880.714Z" fill="#844DA3"/>
<path opacity="0.2" d="M1434.7 1062.71C1425.3 1033.01 1396.2 1012.81 1338 972.514C1273.7 928.014 1232.3 899.314 1200.4 914.714C1177 926.014 1161.5 959.814 1170 987.314C1182.1 1026.31 1232.4 1021.01 1273.3 1068.51C1326.8 1130.51 1297.7 1205.61 1326.9 1219.31C1363.7 1236.71 1459.4 1141.21 1434.7 1062.71Z" fill="#AA63D1"/>
<path d="M1159.6 859.514C1181.1 843.214 1203.7 826.014 1230.6 812.114C1245.3 804.514 1335.1 758.214 1379.7 778.414C1423.6 798.314 1409 949.014 1402.9 954.014C1391.2 963.714 1346.3 958.014 1298.6 952.914C1226 945.114 1170.1 956.014 1159.2 951.314C1148.5 946.614 1079.1 932.914 1129.6 887.414C1138.8 879.114 1135.6 877.814 1159.6 859.514Z" fill="#FD92B4"/>
<path opacity="0.2" d="M1406.4 774.614C1348.8 713.914 1176.1 749.214 1117.3 848.214C1097.4 881.814 1081.6 937.714 1105.4 963.614C1129.5 989.714 1169.7 958.814 1263.7 964.414C1358.3 970.014 1410.3 1007.01 1431.9 981.714C1442.3 969.614 1441.1 948.514 1433.2 935.414C1423.7 919.614 1389.2 952.814 1305.5 928.914C1230.6 907.414 1176.3 935.114 1186.3 907.614C1192.2 891.314 1267.6 848.114 1278.5 842.814C1326.4 819.414 1346.4 800.414 1365.3 808.714C1372.6 811.914 1378.7 820.314 1390.6 836.914C1415 870.914 1419.9 890.014 1423.9 889.114C1431.4 887.514 1442.7 812.914 1406.4 774.614Z" fill="#A21F50"/>
<path d="M1140.8 824.015C1144.6 805.015 1148.7 785.015 1149.2 763.315C1149.5 751.415 1151.2 679.015 1123.8 656.815C1096.9 635.015 1003.2 692.315 1001.8 697.715C999.199 708.315 1017.2 735.415 1035.7 764.315C1063.8 808.515 1074.5 847.915 1081 853.415C1087.5 858.815 1118.5 899.015 1132.1 852.015C1134.6 843.615 1136.4 845.215 1140.8 824.015Z" fill="#FD92B4"/>
<path opacity="0.2" d="M1117.8 638.514C1175.7 656.214 1207.5 778.314 1161.6 847.514C1146 870.914 1114.5 898.914 1090 891.814C1065.4 884.614 1072.8 849.014 1039.3 790.514C1005.5 731.514 964.9 709.814 974.5 687.914C979.1 677.414 993.3 671.514 1004.4 672.414C1017.7 673.514 1007 706.214 1049.2 752.314C1087 793.614 1086.1 837.214 1100.9 822.114C1109.7 813.114 1113.9 751.014 1113.9 742.314C1114 704.114 1120 685.214 1108.6 675.714C1104.2 672.114 1096.8 670.814 1082.2 668.514C1052.2 663.614 1038.2 666.514 1037.5 663.714C1036.2 658.314 1081.3 627.414 1117.8 638.514Z" fill="#A21F50"/>
<path d="M1406.4 1368.81L1191 1445.61L726.6 632.314L877.7 507.714L1406.4 1368.81Z" fill="#FC92B4"/>
<path opacity="0.3" d="M838 540.514L877.7 507.714L1406.4 1368.81L1191 1445.61L1161.5 1393.91L1326 1335.21L838 540.514Z" fill="#B30044"/>
<path d="M1199.2 910.414C1225.6 896.414 1253.4 881.614 1278.6 860.814C1292.4 849.414 1376.5 780.014 1366.7 724.514C1357 669.914 1172.2 611.414 1164.3 615.214C1149 622.514 1153.3 669.614 1144.1 720.914C1130.1 799.114 1056.7 826.314 1089.4 866.114C1097.8 876.314 1136.1 916.014 1156.3 927.514C1160.6 930.014 1169.6 926.014 1199.2 910.414Z" fill="#844DA3"/>
<path d="M1199.2 910.414C1225.6 896.414 1253.4 881.614 1278.6 860.814C1292.4 849.414 1376.5 780.014 1366.7 724.514C1357 669.914 1172.2 611.414 1164.3 615.214C1149 622.514 1153.3 669.614 1144.1 720.914C1130.1 799.114 1056.7 826.314 1089.4 866.114C1097.8 876.314 1136.1 916.014 1156.3 927.514C1160.6 930.014 1169.6 926.014 1199.2 910.414Z" fill="#7C4899"/>
<path d="M1201.5 893.714C1228.1 878.514 1256.1 862.614 1282 841.014C1296.3 829.214 1382.8 757.114 1377.4 704.314C1372.1 652.414 1198 607.914 1190 612.114C1174.7 620.014 1175.3 665.114 1162.6 715.014C1143.2 791.014 1070.1 821.914 1098.8 858.114C1106.1 867.314 1140.2 903.014 1158.9 912.914C1162.8 915.014 1171.8 910.614 1201.5 893.714Z" fill="#844DA3"/>
<path opacity="0.3" d="M1355.8 654.615C1359.5 680.215 1340.1 707.815 1301.1 763.015C1258.1 823.915 1230.3 863.215 1192.8 866.515C1165.2 868.815 1135.7 851.515 1132.1 827.915C1127 794.415 1178 775.615 1197.2 723.115C1222.2 654.415 1161.8 613.615 1184.1 590.515C1212.2 561.515 1346 587.115 1355.8 654.615Z" fill="#AA63D1"/>
<path d="M1184.5 993.714L991 1109.71L899.5 947.214L1096.9 834.914L1113.9 849.114C1153.3 881.814 1178.2 928.614 1183.1 979.414L1184.5 993.714Z" fill="#8F54B1"/>
<path opacity="0.4" d="M1039.6 887.614C981.2 918.214 949.6 972.814 969.2 1009.51C988.8 1046.21 1052.1 1051.11 1110.6 1020.51C1169.1 989.914 1200.6 935.314 1181 898.614C1161.4 861.914 1098.1 857.014 1039.6 887.614Z" fill="#A660CD"/>
<path d="M306.9 597.714C300.3 601.214 290.7 598.214 286.7 592.514C282 585.814 287.9 579.914 283.6 572.614C278.1 563.514 264.2 565.814 263.6 560.814C263 556.614 269.9 550.114 278.7 551.914C283.6 552.814 289.9 554.814 293.9 560.814C298.8 568.414 295.1 579.514 298.9 583.014C303.3 587.114 311.4 582.214 313.6 585.614C315.4 588.414 312 595.014 306.9 597.714Z" fill="url(#paint29_linear_81_221)"/>
<path d="M442.7 629.114C435.2 627.814 429.6 619.514 430 612.514C430.5 604.414 438.9 603.414 440.1 595.114C441.5 584.514 429.2 577.814 431.8 573.514C434.1 569.814 443.5 569.014 449.3 575.814C452.5 579.614 456.3 585.014 455.6 592.214C454.7 601.114 444.8 607.614 445.6 612.614C446.5 618.514 455.8 619.714 455.4 623.714C455.1 627.014 448.3 630.114 442.7 629.114Z" fill="url(#paint30_linear_81_221)"/>
<path d="M253.6 691.415C250.6 698.315 241.2 701.815 234.4 699.715C226.6 697.315 227.6 689.015 219.7 685.915C209.7 682.015 200.1 692.315 196.6 688.815C193.5 685.715 194.9 676.515 202.9 672.515C207.4 670.315 213.6 667.915 220.5 670.315C229 673.315 233 684.315 238.2 684.715C244.2 685.315 247.5 676.615 251.3 677.915C254.5 678.915 255.9 686.215 253.6 691.415Z" fill="#AB6DFF"/>
<path d="M518.899 627.014L515.699 614.314C507.499 581.514 512.299 547.114 529.399 516.714C530.499 514.814 531.099 513.814 531.099 513.814L558.499 527.214C540.399 547.814 528.599 571.814 524.099 597.214L518.899 627.014Z" fill="#AB6DFF"/>
<path d="M517.8 730.714L518 721.514C518.4 697.914 525.7 674.814 538.9 655.714C539.7 654.614 540.1 653.914 540.1 653.914L552.5 666.314C540.2 678.414 530.6 693.714 524.8 710.714L517.8 730.714Z" fill="url(#paint31_linear_81_221)"/>
<path d="M397.899 909.115C396.899 915.615 388.399 920.515 380.999 919.915C372.399 919.315 370.999 911.815 362.099 910.515C350.899 909.015 344.299 919.915 339.699 917.415C335.799 915.315 334.499 906.915 341.399 901.915C345.299 899.115 350.799 895.915 358.399 896.715C367.899 897.715 375.099 906.615 380.399 906.115C386.599 905.415 387.399 897.115 391.599 897.515C395.099 897.915 398.699 904.015 397.899 909.115Z" fill="url(#paint32_linear_81_221)"/>
<path d="M465.099 471.215L452.599 473.215L443.899 464.515L441.899 476.415L430.399 481.615L441.699 487.015L443.299 499.015L452.299 490.415L464.799 492.515L459.099 481.815L465.099 471.215Z" fill="url(#paint33_linear_81_221)"/>
<path d="M591.3 598.314L582.1 612.814L588.9 628.514L572.2 624.314L559.3 635.514L558.1 618.514L543.3 609.814L559.3 603.414L563.1 586.814L574.2 599.914L591.3 598.314Z" fill="url(#paint34_linear_81_221)"/>
<path d="M459.9 706.515C467.1 704.415 471.9 695.615 470.8 688.715C469.5 680.715 461 680.615 459 672.415C456.5 662.015 468.2 654.115 465.1 650.115C462.5 646.615 453 646.815 448 654.115C445.1 658.215 441.9 663.915 443.4 671.015C445.1 679.815 455.6 685.315 455.3 690.415C455 696.315 445.9 698.415 446.6 702.415C447.3 705.615 454.3 708.015 459.9 706.515Z" fill="url(#paint35_linear_81_221)"/>
<path d="M384.6 822.714C389 816.714 387.3 806.814 382 802.114C376 796.614 369.2 801.714 362.6 796.514C354.1 790.014 358.2 776.614 353.3 775.314C349.1 774.214 341.8 780.214 342.4 789.114C342.8 794.014 343.9 800.514 349.5 805.114C356.4 810.914 368 808.814 371 812.914C374.5 817.814 368.6 825.114 371.7 827.614C374.2 829.814 381.3 827.314 384.6 822.714Z" fill="url(#paint36_linear_81_221)"/>
<path d="M423.4 819.014L425.5 806.014C430.9 772.714 423.3 738.814 403.6 709.914C402.4 708.114 401.7 707.214 401.7 707.214L375.5 722.714C395.3 741.814 409.1 764.814 415.7 789.714L423.4 819.014Z" fill="url(#paint37_linear_81_221)"/>
<path d="M328.5 873.815L321.8 862.515C304.6 833.315 277.1 812.015 243.3 801.915C241.3 801.315 240.1 801.015 240.1 801.015L229.8 829.615C257.3 831.815 282.7 840.915 303.7 856.015L328.5 873.815Z" fill="#AB6DFF"/>
<path d="M498.7 826.615L493.6 819.015C480.4 799.415 473.1 776.215 473 753.115C473 751.715 473.1 751.015 473.1 751.015L490.3 754.215C487.2 771.115 488.1 789.015 493 806.315L498.7 826.615Z" fill="url(#paint38_linear_81_221)"/>
<path d="M257.5 725.015L267.8 717.715L268 705.515L277.8 712.615L289.7 708.515L285.4 720.115L292.6 729.815L280.2 729.915L272.7 740.015L269.3 728.415L257.5 725.015Z" fill="url(#paint39_linear_81_221)"/>
<path d="M185.6 757.114L202.3 761.114L208.5 777.114L217.5 762.514L234.7 761.714L223.5 748.714L228 732.214L212.1 738.714L197.7 729.314L199 746.414L185.6 757.114Z" fill="url(#paint40_linear_81_221)"/>
<path d="M396.399 874.014L413.099 878.014L419.299 894.014L428.299 879.414L445.499 878.514L434.399 865.514L438.799 849.014L422.899 855.514L408.499 846.214L409.799 863.314L396.399 874.014Z" fill="url(#paint41_linear_81_221)"/>
<path d="M182.7 300.314H136.4C136.5 295.114 138.3 284.914 140.6 278.214C125.9 297.914 102.4 304.614 82.0998 304.614C24.4998 304.614 17.0998 266.514 30.1998 217.614L67.3998 81.1144C80.5998 31.9144 101.4 -0.785643 168.1 0.0143574C246.9 0.714357 249.4 47.9144 241.2 78.9144L239.5 85.4144H181.5L183.6 75.5144C188.1 55.2144 187.5 38.7144 163.3 38.7144C145.5 38.7144 135.4 46.7144 126.8 78.6144L88.3998 222.414C80.9998 249.014 82.1998 266.214 106.2 266.214C131.3 266.214 140.6 249.114 150.5 212.414L160.1 175.514H126.6L137 136.414H227.5L182.7 300.314Z" fill="#FD92B4"/>
<path d="M367.9 4.31445L287.7 300.314H230.6L310.8 4.31445H367.9Z" fill="#FD92B4"/>
<path d="M380.7 300.314L397.2 4.31445H455.3L442.8 123.214C438.5 163.114 431.9 222.314 427.5 251.814H428.6C440.5 219.914 464.4 165.514 482.2 123.914L533.7 4.31445H594.4L451.5 300.314H380.7Z" fill="#FD92B4"/>
<path d="M717.8 163.514H637.3L612.1 259.214H709.4L690.9 300.314H543.5L623.7 4.31445H765.8L754.4 45.4144H669.4L648.7 122.414H729.3L717.8 163.514Z" fill="#FD92B4"/>
<path fill-rule="evenodd" clip-rule="evenodd" d="M76.9 531.414L48.8 596.014H0C4.4 586.914 106.5 366.014 111.4 355.814H180.8L163.9 596.014H117.2L122.7 531.414H76.9ZM125.7 497.714C129.3 461.014 133.2 415.714 135.9 389.214H134.2C127.2 410.514 107.2 460.314 91.7 497.714H125.7Z" fill="#FD92B4"/>
<path d="M202.6 596.014L226.6 355.814H273.3C266.2 407.314 253.8 488.214 244.2 533.114H245C265 485.314 299.2 411.314 322.4 355.814H366.1C359.9 410.214 350.2 489.214 343.2 536.814H344.2C358.7 491.114 390.9 410.214 412.1 355.814H460.2L350.7 596.014H303.2C309.4 545.314 315.3 481.114 322.7 431.714H321.8C301.3 482.114 272.4 544.214 249.7 596.014H202.6Z" fill="#FD92B4"/>
<path fill-rule="evenodd" clip-rule="evenodd" d="M469.7 531.414L441.6 596.014H392.8C397.2 586.914 499.3 366.014 504.2 355.814H573.6L556.7 596.014H510L515.5 531.414H469.7ZM518.4 497.714C522.1 461.014 526 415.714 528.7 389.214H527C520 410.514 500 460.314 484.5 497.714H518.4Z" fill="#FD92B4"/>
<path d="M595.2 596.014L618.5 510.614C619.4 507.514 619.8 503.214 619.3 500.314L601.1 355.814H648.3C650.2 385.114 653.8 448.514 653.9 465.314H654.3C666.9 441.514 695.7 392.414 717.3 355.814H765.8L667.2 505.414C666.2 507.414 665.3 509.714 664 514.814L641.5 596.014H595.2Z" fill="#FD92B4"/>
<path d="M784 544.214L768.6 529.614C728.9 492.014 676.8 471.114 620.1 470.414C616.7 470.414 614.8 470.414 614.8 470.414L611.6 519.114C655.1 510.514 698.5 513.414 737.7 527.514L784 544.214Z" fill="#AB6DFF"/>
<path d="M412.3 653.214L401.6 645.414C374.3 625.214 356 595.614 349.7 561.314C349.4 559.214 349.2 558.014 349.2 558.014L379 551.114C378.1 578.414 384.4 604.414 397.2 626.814L412.3 653.214Z" fill="url(#paint42_linear_81_221)"/>
<path d="M539.1 375.615L551.8 359.915L546.6 340.915L564.9 347.615L581.5 336.015L580.1 355.915L595.6 367.715L576.3 373.315L569.4 392.215L558.9 375.715L539.1 375.615Z" fill="url(#paint43_linear_81_221)"/>
<defs>
<linearGradient id="paint0_linear_81_221" x1="-8.06911e+06" y1="231036" x2="-8.06706e+06" y2="520241" gradientUnits="userSpaceOnUse">
<stop stop-color="#FED600"/>
<stop offset="1" stop-color="#FCA300"/>
</linearGradient>
<linearGradient id="paint1_linear_81_221" x1="35888.4" y1="-53445" x2="36230.1" y2="-55190.7" gradientUnits="userSpaceOnUse">
<stop stop-color="#FED600"/>
<stop offset="1" stop-color="#FCA300"/>
</linearGradient>
<linearGradient id="paint2_linear_81_221" x1="55919.3" y1="-47530.8" x2="56399.8" y2="-49985.2" gradientUnits="userSpaceOnUse">
<stop offset="0.03" stop-color="#FF8AA3"/>
<stop offset="1" stop-color="#FB4470"/>
</linearGradient>
<linearGradient id="paint3_linear_81_221" x1="116716" y1="-124478" x2="120863" y2="-132875" gradientUnits="userSpaceOnUse">
<stop stop-color="#B0A0E8"/>
<stop offset="1" stop-color="#9569DB"/>
</linearGradient>
<linearGradient id="paint4_linear_81_221" x1="-59607.7" y1="1221.06" x2="-63485.5" y2="2262.6" gradientUnits="userSpaceOnUse">
<stop stop-color="#FCA300"/>
<stop offset="1" stop-color="#FED600"/>
</linearGradient>
<linearGradient id="paint5_linear_81_221" x1="62819.7" y1="-29827.8" x2="63072.7" y2="-31963.8" gradientUnits="userSpaceOnUse">
<stop stop-color="#FED600"/>
<stop offset="1" stop-color="#FCA300"/>
</linearGradient>
<linearGradient id="paint6_linear_81_221" x1="-125315" y1="-371509" x2="-132739" y2="-376534" gradientUnits="userSpaceOnUse">
<stop stop-color="#FED600"/>
<stop offset="1" stop-color="#FCA300"/>
</linearGradient>
<linearGradient id="paint7_linear_81_221" x1="61767.6" y1="94778.4" x2="64964.6" y2="95495.6" gradientUnits="userSpaceOnUse">
<stop stop-color="#FE70A7"/>
<stop offset="1" stop-color="#CA0044"/>
</linearGradient>
<linearGradient id="paint8_linear_81_221" x1="66278.7" y1="-14073.2" x2="68674.5" y2="-15978.1" gradientUnits="userSpaceOnUse">
<stop stop-color="#FED600"/>
<stop offset="1" stop-color="#FCA300"/>
</linearGradient>
<linearGradient id="paint9_linear_81_221" x1="67116.7" y1="7615.39" x2="68387.2" y2="6605.09" gradientUnits="userSpaceOnUse">
<stop offset="0.03" stop-color="#FF8AA3"/>
<stop offset="1" stop-color="#FB4470"/>
</linearGradient>
<linearGradient id="paint10_linear_81_221" x1="129870" y1="-84099.3" x2="136736" y2="-93446.5" gradientUnits="userSpaceOnUse">
<stop stop-color="#B0A0E8"/>
<stop offset="1" stop-color="#9569DB"/>
</linearGradient>
<linearGradient id="paint11_linear_81_221" x1="-45756.6" y1="31596.3" x2="-47597" y2="33763.4" gradientUnits="userSpaceOnUse">
<stop stop-color="#FCA300"/>
<stop offset="1" stop-color="#FED600"/>
</linearGradient>
<linearGradient id="paint12_linear_81_221" x1="96007.2" y1="323342" x2="103889" y2="327620" gradientUnits="userSpaceOnUse">
<stop stop-color="#FED600"/>
<stop offset="1" stop-color="#FCA300"/>
</linearGradient>
<linearGradient id="paint13_linear_81_221" x1="13055.5" y1="-85557.9" x2="11007" y2="-87993.9" gradientUnits="userSpaceOnUse">
<stop stop-color="#FE70A7"/>
<stop offset="1" stop-color="#CA0044"/>
</linearGradient>
<linearGradient id="paint14_linear_81_221" x1="23798.3" y1="-97027.2" x2="21749.9" y2="-99463.2" gradientUnits="userSpaceOnUse">
<stop stop-color="#FE70A7"/>
<stop offset="1" stop-color="#CA0044"/>
</linearGradient>
<linearGradient id="paint15_linear_81_221" x1="23798.3" y1="-97027.2" x2="21749.9" y2="-99463.2" gradientUnits="userSpaceOnUse">
<stop stop-color="#FE70A7"/>
<stop offset="1" stop-color="#CA0044"/>
</linearGradient>
<linearGradient id="paint16_linear_81_221" x1="-18002.8" y1="-110463" x2="-19626.3" y2="-115498" gradientUnits="userSpaceOnUse">
<stop stop-color="#FED600"/>
<stop offset="1" stop-color="#FCA300"/>
</linearGradient>
<linearGradient id="paint17_linear_81_221" x1="13217.6" y1="-101262" x2="11005.2" y2="-108123" gradientUnits="userSpaceOnUse">
<stop offset="0.03" stop-color="#FF8AA3"/>
<stop offset="1" stop-color="#FB4470"/>
</linearGradient>
<linearGradient id="paint18_linear_81_221" x1="-116845" y1="-252921" x2="-133027" y2="-277763" gradientUnits="userSpaceOnUse">
<stop stop-color="#B0A0E8"/>
<stop offset="1" stop-color="#9569DB"/>
</linearGradient>
<linearGradient id="paint19_linear_81_221" x1="97292.7" y1="32973.1" x2="108543" y2="34602.9" gradientUnits="userSpaceOnUse">
<stop stop-color="#FCA300"/>
<stop offset="1" stop-color="#FED600"/>
</linearGradient>
<linearGradient id="paint20_linear_81_221" x1="32810.4" y1="-130513" x2="31555.5" y2="-135723" gradientUnits="userSpaceOnUse">
<stop stop-color="#FED600"/>
<stop offset="1" stop-color="#FCA300"/>
</linearGradient>
<linearGradient id="paint21_linear_81_221" x1="-134177" y1="-45866.3" x2="-142485" y2="-42933.9" gradientUnits="userSpaceOnUse">
<stop stop-color="#FE70A7"/>
<stop offset="1" stop-color="#CA0044"/>
</linearGradient>
<linearGradient id="paint22_linear_81_221" x1="-77708.1" y1="-83409.7" x2="-85095.5" y2="-87972.5" gradientUnits="userSpaceOnUse">
<stop stop-color="#FED600"/>
<stop offset="1" stop-color="#FCA300"/>
</linearGradient>
<linearGradient id="paint23_linear_81_221" x1="-80834.9" y1="-103842" x2="-85227.9" y2="-106556" gradientUnits="userSpaceOnUse">
<stop offset="0.03" stop-color="#FF8AA3"/>
<stop offset="1" stop-color="#FB4470"/>
</linearGradient>
<linearGradient id="paint24_linear_81_221" x1="-184680" y1="-275386" x2="-208957" y2="-301338" gradientUnits="userSpaceOnUse">
<stop stop-color="#B0A0E8"/>
<stop offset="1" stop-color="#9569DB"/>
</linearGradient>
<linearGradient id="paint25_linear_81_221" x1="73726.5" y1="92689.3" x2="80005.8" y2="98517.8" gradientUnits="userSpaceOnUse">
<stop stop-color="#FCA300"/>
<stop offset="1" stop-color="#FED600"/>
</linearGradient>
<linearGradient id="paint26_linear_81_221" x1="-592919" y1="184651" x2="-613127" y2="198948" gradientUnits="userSpaceOnUse">
<stop stop-color="#FED600"/>
<stop offset="1" stop-color="#FCA300"/>
</linearGradient>
<linearGradient id="paint27_linear_81_221" x1="130098" y1="-112360" x2="134956" y2="-119764" gradientUnits="userSpaceOnUse">
<stop stop-color="#FE70A7"/>
<stop offset="1" stop-color="#CA0044"/>
</linearGradient>
<linearGradient id="paint28_linear_81_221" x1="166070" y1="-87819" x2="170928" y2="-95223.2" gradientUnits="userSpaceOnUse">
<stop stop-color="#FE70A7"/>
<stop offset="1" stop-color="#CA0044"/>
</linearGradient>
<linearGradient id="paint29_linear_81_221" x1="-6770.06" y1="-38392" x2="-8782.37" y2="-40603.7" gradientUnits="userSpaceOnUse">
<stop stop-color="#FED600"/>
<stop offset="1" stop-color="#FCA300"/>
</linearGradient>
<linearGradient id="paint30_linear_81_221" x1="-531.558" y1="-52115.7" x2="-1466.35" y2="-53143.1" gradientUnits="userSpaceOnUse">
<stop offset="0.03" stop-color="#FF8AA3"/>
<stop offset="1" stop-color="#FB4470"/>
</linearGradient>
<linearGradient id="paint31_linear_81_221" x1="-27368.5" y1="38823.3" x2="-28079.5" y2="40619.7" gradientUnits="userSpaceOnUse">
<stop stop-color="#FCA300"/>
<stop offset="1" stop-color="#FED600"/>
</linearGradient>
<linearGradient id="paint32_linear_81_221" x1="17536.3" y1="-61929.2" x2="15393.6" y2="-63954.3" gradientUnits="userSpaceOnUse">
<stop stop-color="#FED600"/>
<stop offset="1" stop-color="#FCA300"/>
</linearGradient>
<linearGradient id="paint33_linear_81_221" x1="-239336" y1="-94973.7" x2="-248030" y2="-91933.4" gradientUnits="userSpaceOnUse">
<stop stop-color="#FED600"/>
<stop offset="1" stop-color="#FCA300"/>
</linearGradient>
<linearGradient id="paint34_linear_81_221" x1="82484.3" y1="4986.74" x2="85027.8" y2="2796.91" gradientUnits="userSpaceOnUse">
<stop stop-color="#FE70A7"/>
<stop offset="1" stop-color="#CA0044"/>
</linearGradient>
<linearGradient id="paint35_linear_81_221" x1="22832.7" y1="-44070.6" x2="22779" y2="-45715.8" gradientUnits="userSpaceOnUse">
<stop stop-color="#FED600"/>
<stop offset="1" stop-color="#FCA300"/>
</linearGradient>
<linearGradient id="paint36_linear_81_221" x1="43227.7" y1="-35447.5" x2="43149" y2="-37858.7" gradientUnits="userSpaceOnUse">
<stop offset="0.03" stop-color="#FF8AA3"/>
<stop offset="1" stop-color="#FB4470"/>
</linearGradient>
<linearGradient id="paint37_linear_81_221" x1="14755.1" y1="-115235" x2="12371.8" y2="-122993" gradientUnits="userSpaceOnUse">
<stop stop-color="#B0A0E8"/>
<stop offset="1" stop-color="#9569DB"/>
</linearGradient>
<linearGradient id="paint38_linear_81_221" x1="-2598.88" y1="45861.4" x2="-2276.23" y2="47255" gradientUnits="userSpaceOnUse">
<stop stop-color="#FCA300"/>
<stop offset="1" stop-color="#FED600"/>
</linearGradient>
<linearGradient id="paint39_linear_81_221" x1="231836" y1="145217" x2="240306" y2="141288" gradientUnits="userSpaceOnUse">
<stop stop-color="#FED600"/>
<stop offset="1" stop-color="#FCA300"/>
</linearGradient>
<linearGradient id="paint40_linear_81_221" x1="-38084.1" y1="-63606.8" x2="-41526.7" y2="-63400" gradientUnits="userSpaceOnUse">
<stop stop-color="#FE70A7"/>
<stop offset="1" stop-color="#CA0044"/>
</linearGradient>
<linearGradient id="paint41_linear_81_221" x1="-53140.7" y1="-70714.9" x2="-56583.3" y2="-70508.1" gradientUnits="userSpaceOnUse">
<stop stop-color="#FE70A7"/>
<stop offset="1" stop-color="#CA0044"/>
</linearGradient>
<linearGradient id="paint42_linear_81_221" x1="-11255.5" y1="-108846" x2="-15776.2" y2="-117684" gradientUnits="userSpaceOnUse">
<stop stop-color="#B0A0E8"/>
<stop offset="1" stop-color="#9569DB"/>
</linearGradient>
<linearGradient id="paint43_linear_81_221" x1="419242" y1="-67159.1" x2="437524" y2="-82990.2" gradientUnits="userSpaceOnUse">
<stop stop-color="#FED600"/>
<stop offset="1" stop-color="#FCA300"/>
</linearGradient>
</defs>
</svg>
