<svg width="3117" height="2038" viewBox="0 0 3117 2038" fill="none" xmlns="http://www.w3.org/2000/svg">
<path d="M1487.53 1891.8L1374.63 1572.3L686.131 1652.9L1487.53 1891.8Z" fill="#E383A1"/>
<path d="M658.13 1364.7C678.33 1344.5 674.63 1310.8 650.53 1295.6C642.83 1290.7 634.23 1288.4 625.63 1288.4C613.73 1288.4 601.83 1293 592.83 1302C585.23 1309.6 575.23 1313.4 565.23 1313.4C555.23 1313.4 545.23 1309.6 537.53 1302L459.43 1223.8L361.03 1322.2L486.23 1447.4C498.53 1459.7 514.73 1465.9 530.83 1465.9C546.93 1465.9 563.13 1459.7 575.43 1447.4L658.13 1364.7Z" fill="#FD92B4"/>
<path d="M217.031 821.901L10.1306 1028.8C-20.9694 1060 21.9307 1153.4 106.031 1237.5C171.531 1303 242.731 1343.6 285.731 1343.6C297.931 1343.6 307.831 1340.3 314.731 1333.4L521.631 1126.5C577.231 1070.9 645.431 1029.4 720.431 1005.5L837.931 968.101C823.131 964.301 807.731 959.001 791.531 952.401C759.331 939.201 725.731 921.001 692.031 898.801C604.831 928.901 525.531 978.401 460.131 1043.7C447.731 1056.2 431.431 1062.4 415.131 1062.4C398.831 1062.4 382.531 1056.2 370.031 1043.7L299.831 973.501C274.931 948.601 274.931 908.301 299.831 883.401C365.131 818.101 414.731 738.801 444.731 651.501C422.531 617.801 404.331 584.301 391.131 552.001C384.531 535.901 379.331 520.401 375.431 505.601L338.031 623.101C314.131 698.101 272.631 766.301 217.031 821.901Z" fill="#FD92B4"/>
<path d="M733.931 787.6C773.131 748.4 765.031 676.8 715.931 627.7C687.731 599.5 652.131 584.8 619.531 584.8C595.331 584.8 572.631 592.9 555.931 609.7C553.597 612.033 551.431 614.467 549.431 617C559.631 631.1 570.531 645 582.131 658.8C582.331 659.066 582.531 659.3 582.731 659.5C584.064 661.1 585.397 662.666 586.731 664.2C587.197 664.8 587.664 665.366 588.131 665.9C589.331 667.3 590.531 668.667 591.731 670C592.331 670.733 592.964 671.466 593.631 672.2C594.764 673.466 595.897 674.733 597.031 676C597.764 676.8 598.497 677.633 599.231 678.5C600.297 679.7 601.364 680.867 602.431 682C603.231 682.933 604.064 683.866 604.931 684.8C605.931 685.866 606.931 686.967 607.931 688.1C608.864 689.1 609.831 690.1 610.831 691.1C611.697 692.1 612.631 693.1 613.631 694.1C614.697 695.233 615.764 696.367 616.831 697.5C617.697 698.433 618.531 699.333 619.331 700.2C620.597 701.533 621.864 702.833 623.131 704.1C623.864 704.833 624.564 705.566 625.231 706.3C627.231 708.3 629.231 710.3 631.231 712.3C633.231 714.3 635.264 716.3 637.331 718.3C637.997 719.033 638.697 719.733 639.431 720.4C640.764 721.666 642.064 722.933 643.331 724.2C644.264 725.066 645.164 725.933 646.031 726.8C647.164 727.866 648.297 728.933 649.431 730C650.431 730.933 651.431 731.866 652.431 732.8C653.431 733.733 654.431 734.667 655.431 735.6C656.564 736.6 657.664 737.6 658.731 738.6C659.664 739.467 660.597 740.333 661.531 741.2C662.731 742.266 663.897 743.333 665.031 744.4C665.897 745.133 666.731 745.867 667.531 746.6C668.797 747.733 670.064 748.833 671.331 749.9C672.064 750.566 672.797 751.2 673.531 751.8C674.931 753 676.331 754.2 677.731 755.4C678.264 755.866 678.797 756.333 679.331 756.8C680.864 758.133 682.431 759.466 684.031 760.8C684.231 761 684.464 761.2 684.731 761.4C698.531 773 712.531 783.9 726.531 794.1C726.597 794.1 726.631 794.1 726.631 794.1C729.164 792.1 731.597 789.933 733.931 787.6Z" fill="#FD92B4"/>
<path fill-rule="evenodd" clip-rule="evenodd" d="M414.931 381.4C430.631 365.8 453.031 358.4 480.231 358.4C562.931 358.4 689.43 426.8 803.03 540.5C954.13 691.6 1025.43 865.4 962.131 928.6C946.431 944.3 924.031 951.7 896.731 951.7C814.131 951.7 687.63 883.3 573.93 769.6C422.83 618.5 351.631 444.7 414.931 381.4ZM466.931 520.9C479.931 552.7 498.931 586.4 523.331 621.3C549.131 658.3 579.83 694.6 614.43 729.2C648.93 763.7 685.231 794.4 722.231 820.2C757.131 844.6 790.931 863.6 822.631 876.6C855.131 889.9 879.931 894.5 896.831 894.5C909.731 894.5 918.131 891.8 921.731 888.2C929.931 879.9 933.63 846.8 910.03 789.2C897.03 757.4 878.131 723.6 853.731 688.7C827.831 651.8 797.231 615.5 762.631 580.9C728.031 546.3 691.831 515.7 654.831 489.9C619.931 465.5 586.13 446.5 554.43 433.5C521.83 420.2 497.131 415.5 480.231 415.5C467.231 415.5 458.931 418.3 455.331 421.9C447.131 430.1 443.331 463.3 466.931 520.9Z" fill="#FD92B4"/>
<path d="M2864.03 564.7L3018.33 250.8L2814.53 303.7L2864.03 564.7Z" fill="#FD92B4"/>
<path d="M640.931 1705.7L338.631 1881.6L474.431 2037.4L640.931 1705.7Z" fill="#FD92B4"/>
<path d="M894.33 570.101L1328.63 544.201L1265.23 295.101L894.33 570.101Z" fill="#FD92B4"/>
<path d="M883.431 516.4L1054.43 401.1L968.531 314.7L883.431 516.4Z" fill="#FD92B4"/>
<path d="M675.431 1705.7L654.131 1996.7L825.331 1976.7L675.431 1705.7Z" fill="#FD92B4"/>
<path d="M619.431 1670.1L418.931 1561.3L373.431 1671.4L619.431 1670.1Z" fill="#FD92B4"/>
<path d="M828.731 505.6L1039.13 86.3L809.631 0L828.731 505.6Z" fill="#FD92B4"/>
<path d="M2926.63 584.7L3116.63 522.9L3060.63 439L2926.63 584.7Z" fill="#FD92B4"/>
<path d="M1000.93 805.8C1016.63 866.5 1009.23 915.2 978.93 945.5C968.73 955.8 956.13 963.5 941.63 968.6C928.23 973.2 913.13 975.6 896.73 975.6C895.664 975.6 894.53 975.567 893.33 975.5L845.13 990.8L727.63 1028.2C656.63 1050.8 591.23 1090.7 538.43 1143.4L524.03 1157.8L567.13 1289.5C570.43 1289 573.53 1287.5 575.93 1285.1C589.23 1271.8 606.93 1264.5 625.63 1264.5C639.03 1264.5 652.03 1268.3 663.23 1275.4C680.93 1286.6 692.33 1304.9 694.63 1325.6C696.93 1346.4 689.73 1366.8 675.03 1381.5L616.43 1440.1L686.13 1652.9L2723.13 1414.3L2863.43 623.4L1000.93 805.8Z" fill="#FD92B4"/>
<path fill-rule="evenodd" clip-rule="evenodd" d="M1143.63 1125.9L1140.23 911.5L1230.73 901.2C1253.53 898.6 1270.1 898.633 1280.43 901.3C1290.83 903.966 1299.2 909.866 1305.53 919C1311.93 928.133 1315.23 939.033 1315.43 951.7C1315.7 967.833 1311.2 981.666 1301.93 993.2C1292.73 1004.73 1278.8 1012.93 1260.13 1017.8C1269.53 1022.2 1277.3 1027.33 1283.43 1033.2C1289.63 1039.07 1298 1049.73 1308.53 1065.2L1335.23 1104.1L1283.73 1109.9L1251.93 1066.8C1240.6 1051.4 1232.86 1041.77 1228.73 1037.9C1224.6 1034.03 1220.23 1031.57 1215.63 1030.5C1211.03 1029.37 1203.8 1029.37 1193.93 1030.5L1185.23 1031.5L1186.73 1121L1143.63 1125.9ZM1184.63 997.3L1216.43 993.6C1237.1 991.266 1249.96 988.933 1255.03 986.6C1260.16 984.266 1264.13 980.8 1266.93 976.2C1269.8 971.533 1271.16 966 1271.03 959.6C1270.96 952.333 1268.96 946.7 1265.03 942.7C1261.16 938.7 1255.73 936.533 1248.73 936.2C1245.2 936.133 1234.73 937.066 1217.33 939L1183.73 942.9L1184.63 997.3Z" fill="white"/>
<path d="M1358.43 1101.4L1355.03 887L1512.93 869L1513.53 905.2L1398.63 918.4L1399.33 965.9L1506.33 953.7L1506.93 989.8L1399.93 1002L1400.93 1060.4L1519.93 1046.8L1520.53 1082.9L1358.43 1101.4Z" fill="white"/>
<path d="M1654.73 988.6L1654.13 952.5L1746.93 941.9L1748.23 1027.3C1739.36 1037.1 1726.43 1046.3 1709.43 1054.9C1692.5 1063.57 1675.23 1068.9 1657.63 1070.9C1635.36 1073.43 1615.86 1070.93 1599.13 1063.4C1582.46 1055.93 1569.8 1043.9 1561.13 1027.3C1552.53 1010.77 1548.06 992.234 1547.73 971.7C1547.4 949.367 1551.73 928.967 1560.73 910.5C1569.73 892.1 1583.13 877.234 1600.93 865.9C1614.46 857.234 1631.4 851.734 1651.73 849.4C1678.2 846.4 1698.96 849.634 1714.03 859.1C1729.1 868.567 1738.9 882.9 1743.43 902.1L1700.93 915C1697.73 904.867 1691.93 897.2 1683.53 892C1675.13 886.867 1664.73 885 1652.33 886.4C1633.53 888.6 1618.7 896.334 1607.83 909.6C1596.96 922.8 1591.7 941.2 1592.03 964.8C1592.43 990.267 1598.36 1008.73 1609.83 1020.2C1621.3 1031.6 1636.13 1036.27 1654.33 1034.2C1663.33 1033.2 1672.33 1030.4 1681.33 1025.8C1690.33 1021.2 1698.03 1016 1704.43 1010.2L1704.03 983L1654.73 988.6Z" fill="white"/>
<path d="M1787.13 1052.4L1783.73 838.001L1826.73 833.101L1830.23 1047.5L1787.13 1052.4Z" fill="white"/>
<path d="M1859.23 974.3L1901.03 965.4C1903.76 979.267 1909.03 989.067 1916.83 994.8C1924.63 1000.6 1935.06 1002.73 1948.13 1001.2C1962 999.667 1972.4 995.534 1979.33 988.8C1986.26 982.134 1989.66 974.833 1989.53 966.9C1989.46 961.833 1987.93 957.7 1984.93 954.5C1981.86 951.234 1976.63 948.7 1969.23 946.9C1964.16 945.767 1952.63 943.967 1934.63 941.5C1911.5 938.367 1895.23 933.167 1885.83 925.9C1872.56 915.567 1865.76 901.934 1865.43 885C1865.3 874.067 1868.23 863.5 1874.23 853.3C1880.23 843.1 1888.96 834.834 1900.43 828.5C1911.96 822.234 1925.9 818.167 1942.23 816.3C1968.96 813.234 1989.2 816.834 2002.93 827.1C2016.66 837.3 2024.03 852.233 2025.03 871.9L1982.03 878.7C1979.96 867.9 1975.86 860.434 1969.73 856.3C1963.6 852.167 1954.5 850.767 1942.43 852.1C1929.9 853.567 1920.13 857.267 1913.13 863.2C1908.66 867.067 1906.46 871.767 1906.53 877.3C1906.6 882.367 1908.8 886.467 1913.13 889.6C1918.66 893.6 1931.93 896.867 1952.93 899.4C1973.93 902 1989.5 905.4 1999.63 909.6C2009.7 913.734 2017.66 920.1 2023.53 928.7C2029.33 937.234 2032.33 948.267 2032.53 961.8C2032.73 974.134 2029.53 986.034 2022.93 997.5C2016.33 1009.03 2006.86 1018.1 1994.53 1024.7C1982.2 1031.37 1966.8 1035.73 1948.33 1037.8C1921.4 1040.93 1900.6 1037.03 1885.93 1026.1C1871.33 1015.23 1862.43 997.967 1859.23 974.3Z" fill="white"/>
<path d="M2117.53 1014.7L2114.63 836.6L2051.43 843.8L2050.83 807.5L2220.13 788.2L2220.73 824.4L2157.73 831.7L2160.53 1009.8L2117.53 1014.7Z" fill="white"/>
<path d="M2251.43 999.4L2248.03 785L2405.93 767L2406.53 803.2L2291.63 816.4L2292.33 863.9L2399.33 851.7L2399.93 887.8L2292.93 900L2293.83 958.4L2412.93 944.8L2413.43 980.9L2251.43 999.4Z" fill="white"/>
<path fill-rule="evenodd" clip-rule="evenodd" d="M2450.03 976.7L2446.63 762.3L2537.13 752.001C2559.93 749.401 2576.53 749.434 2586.93 752.1C2597.26 754.767 2605.63 760.667 2612.03 769.8C2618.36 778.934 2621.63 789.834 2621.83 802.501C2622.1 818.567 2617.63 832.401 2608.43 844.001C2599.16 855.534 2585.2 863.734 2566.53 868.601C2575.93 873.001 2583.73 878.134 2589.93 884.001C2596.06 889.801 2604.4 900.467 2614.93 916.001L2641.63 954.8L2590.13 960.7L2558.33 917.6C2547 902.2 2539.26 892.567 2535.13 888.7C2531 884.834 2526.63 882.334 2522.03 881.2C2517.5 880.134 2510.26 880.167 2500.33 881.3L2491.63 882.3L2493.13 971.8L2450.03 976.7ZM2491.03 848.001L2522.83 844.4C2543.5 842.067 2556.36 839.734 2561.43 837.4C2566.56 835.067 2570.53 831.567 2573.33 826.9C2576.2 822.3 2577.56 816.767 2577.43 810.3C2577.36 803.1 2575.36 797.501 2571.43 793.501C2567.56 789.501 2562.13 787.334 2555.13 787.001C2551.6 786.867 2541.13 787.8 2523.73 789.8L2490.13 793.6L2491.03 848.001Z" fill="white"/>
<path d="M1372.93 1172.4L1456.53 1162.9L1568.13 1311.7L1565.53 1150.4L1649.83 1140.8L1654.53 1432.2L1570.23 1441.8L1459.23 1294.2L1461.83 1454.2L1377.63 1463.8L1372.93 1172.4Z" fill="white"/>
<path fill-rule="evenodd" clip-rule="evenodd" d="M1700.43 1281.2C1699.7 1233.6 1712.26 1195.07 1738.13 1165.6C1764.06 1136.07 1800.53 1118.63 1847.53 1113.3C1895.73 1107.77 1933.06 1116.53 1959.53 1139.6C1986.06 1162.67 1999.7 1197.63 2000.43 1244.5C2000.96 1278.57 1995.73 1307.17 1984.73 1330.3C1973.66 1353.37 1957.46 1372.2 1936.13 1386.8C1914.8 1401.4 1888.06 1410.53 1855.93 1414.2C1823.26 1417.93 1796.16 1415.77 1774.63 1407.7C1753.03 1399.7 1735.4 1385.13 1721.73 1364C1708.06 1342.87 1700.96 1315.27 1700.43 1281.2ZM1789.93 1271.4C1790.4 1300.8 1796.16 1321.3 1807.23 1332.9C1818.3 1344.5 1833.2 1349.23 1851.93 1347.1C1871.13 1344.9 1885.9 1336.93 1896.23 1323.2C1906.56 1309.4 1911.46 1286.2 1910.93 1253.6C1910.46 1226.13 1904.63 1206.7 1893.43 1195.3C1882.23 1183.9 1867.23 1179.3 1848.43 1181.5C1830.36 1183.5 1816 1191.57 1805.33 1205.7C1794.6 1219.83 1789.46 1241.73 1789.93 1271.4Z" fill="white"/>
<path d="M2009.53 1099.7L2094.53 1090L2127.73 1249.7L2169.93 1081.4L2254.63 1071.7L2302.13 1229.5L2330.13 1063.1L2414.63 1053.5L2355.53 1352.1L2267.83 1362.2L2214.03 1184.5L2166.43 1373.7L2078.73 1383.8L2009.53 1099.7Z" fill="white"/>
</svg>
